# xmcd
#
# Track frame offsets: 
#        150
#        4807
#        10700
#        21345
#        34872
#        55156
#        57947
#        91689
#        96705
#        116702
#        133445
#        141974
#        158048
#        166402
#        172445
#        190093
#        218435
#
# Disc length: 2979 seconds
#
# Revision: 0
# Processed by: cddbd v1.5.2PL0 Copyright (c) Steve Scherf et al.
# Submitted via: ExactAudioCopy v0.99pb5
#
DISCID=ef0ba111
DTITLE=The Beatles  - The Beatles Story (Fabulous Sound Labs) 
DYEAR=1900
DGENRE=
TTITLE0=On Stage With The Beatles
TTITLE1=How Beatlemania Began
TTITLE2=Beatlemania In Action
TTITLE3=Man Behind The Beatles - Brian Epstein
TTITLE4=John Lennon
TTITLE5=Who's A Millionaire
TTITLE6=Beatles Will Be Beatles
TTITLE7=Man Behind The Music - George Martin
TTITLE8=George Harrison
TTITLE9=A Hard Day's Night - Their First Movie
TTITLE10=Paul McCartney
TTITLE11=Sneaky Haircuts and More About Paul
TTITLE12=The Beatles Look At Life
TTITLE13=Victims' Of Beatlemania
TTITLE14=Beatle Medley
TTITLE15=Ringo Starr
TTITLE16=Liverpool and All The World
EXTD=
EXTT0=
EXTT1=
EXTT2=
EXTT3=
EXTT4=
EXTT5=
EXTT6=
EXTT7=
EXTT8=
EXTT9=
EXTT10=
EXTT11=
EXTT12=
EXTT13=
EXTT14=
EXTT15=
EXTT16=
PLAYORDER=
